<svg viewBox="0 0 1024 1024" xmlns="http://www.w3.org/2000/svg" width="88" height="88">
  <path d="M662.544245 500.651456a272.932748 272.932748 0 1 0-300.908354 0A512.431234 512.431234 0 0 0 0 989.883407a34.116593 34.116593 0 0 0 68.233187 0 443.515715 443.515715 0 0 1 887.03143 0 34.116593 34.116593 0 0 0 68.233187 0 512.431234 512.431234 0 0 0-360.953559-489.231951zM307.049341 273.434944a204.699561 204.699561 0 1 1 204.699561 204.699561 204.699561 204.699561 0 0 1-204.699561-204.699561z" fill="#A5B5D6"/>
</svg>
